<svg width="512" height="512" viewBox="0 0 512 512" xmlns="http://www.w3.org/2000/svg">
  <defs>
    <linearGradient id="bg" x1="0" y1="0" x2="512" y2="512" gradientUnits="userSpaceOnUse">
      <stop offset="0" stop-color="#3b82f6" />
      <stop offset="1" stop-color="#22c55e" />
    </linearGradient>
  </defs>
  <rect width="512" height="512" rx="105" fill="url(#bg)" />
  <g transform="translate(102.5,102.5) scale(12.79)" fill="none" stroke="#ffffff" stroke-width="2" stroke-linecap="round" stroke-linejoin="round">
    <path d="M16.17 7.83 2 22" />
    <path d="M4.02 12a2.827 2.827 0 1 1 3.81-4.17A2.827 2.827 0 1 1 12 4.02a2.827 2.827 0 1 1 4.17 3.81A2.827 2.827 0 1 1 19.98 12a2.827 2.827 0 1 1-3.81 4.17A2.827 2.827 0 1 1 12 19.98a2.827 2.827 0 1 1-4.17-3.81A1 1 0 1 1 4 12" />
    <path d="m7.83 7.83 8.34 8.34" />
  </g>
</svg>
